<?xml version="1.0" encoding="iso-8859-1"?>
<!-- Generator: Adobe Illustrator 16.0.0, SVG Export Plug-In . SVG Version: 6.00 Build 0)  -->
<!DOCTYPE svg PUBLIC "-//W3C//DTD SVG 1.1//EN" "http://www.w3.org/Graphics/SVG/1.1/DTD/svg11.dtd">
<svg version="1.1" id="Capa_1" xmlns="http://www.w3.org/2000/svg" xmlns:xlink="http://www.w3.org/1999/xlink" x="0px" y="0px"
	 width="599.433px" height="599.432px" viewBox="0 0 599.433 599.432" style="enable-background:new 0 0 599.433 599.432;"
	 xml:space="preserve">
<g>
	<path d="M595.528,318.737c-45.288-47.124-97.309-90.576-159.732-112.608c-7.956-2.448-15.912,4.284-15.912,12.24
		c0,12.24,0,25.092-0.612,37.332c-22.644-0.612-45.287,1.224-67.319,0.612c-33.048-0.612-67.32-3.672-100.368,1.224
		c-7.344-2.448-17.136,1.224-17.136,11.016c0,34.884,0,69.768,3.06,104.041c0.612,9.18,9.792,12.852,15.912,10.403
		c-1.224,1.225-2.448,1.836-3.672,3.672c-1.836,2.448-0.612,4.896,2.448,5.509c1.224,1.836,3.06,3.672,4.896,3.672
		c32.436,4.284,66.708,1.224,99.145,1.224c17.136,0,40.392,2.448,61.812,2.448c0.612,13.464,0.612,26.928,1.836,39.78
		c0,3.672,1.836,5.508,3.672,7.344c2.448,4.896,7.345,9.18,14.688,7.344c61.2-14.076,113.22-77.724,157.284-118.116
		C601.036,331.588,600.424,323.633,595.528,318.737z"/>
	<path d="M401.524,445.42c0-5.508-4.896-11.016-11.017-11.016c-21.42,0.612-42.84,1.836-64.26,3.672c-0.612,0-0.612,0-1.224,0.612
		c-3.061-1.225-6.12-0.612-8.568,3.06c-9.792,12.853-8.568,30.601-9.18,46.513c-0.612,23.256,1.224,46.512-4.284,69.768
		c-1.836,7.956,3.672,14.688,11.628,15.3c25.704,2.448,49.572-3.06,73.439-11.628c3.672-1.224,7.345-4.284,7.956-7.956
		C401.524,517.025,402.136,480.917,401.524,445.42z M330.532,507.845c0-12.853,1.836-27.54,2.447-41.005
		c0.612,0.612,1.225,1.225,1.837,1.837c-2.448,15.3-3.673,31.212-4.284,47.124C330.532,512.741,330.532,510.292,330.532,507.845z"/>
	<path d="M392.344,35.381c-44.676-17.136-104.652-6.732-151.164-6.732c-75.276-0.612-151.164-1.224-226.44,0.612
		c-6.12,0-13.464,5.508-12.24,12.24c11.016,85.68,2.448,171.36,3.06,257.652c0.612,82.62,2.448,164.628-5.508,247.248
		c-0.612,6.12,4.284,9.18,9.792,9.18c0.612,3.672,3.06,7.956,8.568,7.956c29.988,1.836,59.976,2.448,89.964,3.061
		c6.12,0,11.628-5.509,11.628-11.628c0-102.204,4.896-205.021,3.06-307.225c-0.612-22.644-1.836-44.676-3.06-67.32
		c-0.612-11.016-1.836-22.032-3.06-33.048c-1.836-15.912,41.616-11.628,52.632-12.852c45.9-3.672,92.412-1.836,138.312,0
		c-3.06,25.704-6.12,52.632-0.611,78.336c1.224,4.896,3.672,7.344,7.344,8.568c7.956,17.136,53.244,11.628,66.708,11.628
		c6.731,0,10.403-4.896,11.016-10.404c2.448-1.224,4.284-3.672,4.896-6.732C405.808,180.425,445.588,55.577,392.344,35.381z"/>
</g>
<g>
</g>
<g>
</g>
<g>
</g>
<g>
</g>
<g>
</g>
<g>
</g>
<g>
</g>
<g>
</g>
<g>
</g>
<g>
</g>
<g>
</g>
<g>
</g>
<g>
</g>
<g>
</g>
<g>
</g>
</svg>
